Coordinates
version=1
nRows=19
nColumns=36
inDegrees=yes

Units are S.I. units (second, meters, Newtons, ...)
If the header above contains a line with 'inDegrees', this indicates whether rotational values are in degrees (yes) or radians (no).

endheader
time	pelvis_tilt	pelvis_list	pelvis_rotation	pelvis_tx	pelvis_ty	pelvis_tz	hip_flexion_r	hip_adduction_r	hip_rotation_r	knee_angle_r	knee_angle_r_beta	ankle_angle_r	subtalar_angle_r	mtp_angle_r	hip_flexion_l	hip_adduction_l	hip_rotation_l	knee_angle_l	knee_angle_l_beta	ankle_angle_l	subtalar_angle_l	mtp_angle_l	lumbar_extension	lumbar_bending	lumbar_rotation	arm_flex_r	arm_add_r	arm_rot_r	elbow_flex_r	pro_sup_r	arm_flex_l	arm_add_l	arm_rot_l	elbow_flex_l	pro_sup_l
      0.86666670	     -1.33939161	     -2.08745747	      4.26425378	      0.00501136	      1.10558083	      0.39165288	      3.48427483	      2.85640095	     -7.01370764	      5.71314627	      0.09971321	      6.62452582	    -17.63019153	     -7.49187718	      3.55780120	     -0.16682190	     10.37460205	      4.30651529	      0.07516287	      9.45145514	     -2.72946228	     -7.49187718	      1.60372482	      2.25772374	     -3.89397641	      1.26268656	     -3.01527647	      0.45811421	     22.04511378	     89.26396695	     -1.01256844	     -2.37623658	      2.43098445	     22.50754442	     71.79131771
      0.88333330	     -1.72839829	     -2.08945116	      4.10934135	      0.01221293	      1.10617761	      0.39404072	      4.02298370	      2.90421072	     -7.21158587	      5.92363438	      0.10338692	      6.31780669	    -17.58108937	     -7.49197547	      3.76926269	     -0.23960704	     10.28443548	      3.84643568	      0.06713297	      8.43255580	     -2.62818996	     -7.49197547	      1.72964195	      2.39127859	     -4.74107917	      1.33719955	     -2.83543331	      0.46945948	     22.22653602	     89.49855974	     -1.19382610	     -2.34421933	      2.85705290	     22.56204727	     71.95314583
      0.90000000	     -1.40465517	     -2.18168435	      3.96640961	      0.00527721	      1.10526391	      0.39191198	      3.49299982	      3.01305707	     -7.34044512	      5.44916749	      0.09510591	      6.16282878	    -17.30860835	     -7.49207295	      3.65672347	     -0.19537234	     10.10248496	      4.58798087	      0.08007537	      9.12744296	     -2.84765527	     -7.49207295	      1.88032926	      2.40444460	     -4.12197304	      1.29957795	     -2.99828378	      0.55906551	     21.93768935	     89.72177150	     -1.02085428	     -2.29146627	      3.13678529	     22.77942487	     72.06794682
      0.91666670	     -2.08161548	     -2.12425115	      3.89986008	      0.00553084	      1.10231011	      0.39190810	      4.47098138	      2.85291654	     -7.60936301	      5.81312692	      0.10145820	      6.22994269	    -17.10974596	     -7.49389559	      4.40589335	     -0.11955718	     10.38968261	      4.13926780	      0.07224385	      8.02912148	     -3.22650235	     -7.49389559	      2.08893780	      2.55722435	     -5.02665143	      1.64225251	     -3.05093019	      1.40197596	     22.14886170	     91.25433753	     -1.05883182	     -2.66817727	      6.04310166	     23.10149513	     72.35292462
      0.93333330	     -1.33850570	     -2.04973111	      4.04374742	      0.01240903	      1.10622569	      0.39439238	      3.14200351	      2.87241648	     -7.68163829	      4.96389486	      0.08663631	      6.01861402	    -16.52487066	     -7.49408304	      3.65139297	     -0.01279885	     10.26480307	      4.61533591	      0.08055281	      8.68531249	     -2.98946889	     -7.49408304	      1.87055035	      2.30015351	     -4.29744278	      1.37859270	     -2.97910177	      1.01689889	     21.71103996	     91.40675472	     -0.96764549	     -2.67832840	      5.87892164	     23.00586087	     72.35022947
      0.95000000	     -2.06631868	     -2.02306547	      3.88761581	      0.01252548	      1.10533181	      0.39449973	      4.09381805	      2.78914659	     -7.88998480	      5.27778603	      0.09211474	      6.22922755	    -16.52721932	     -7.49468314	      4.24141620	     -0.07044428	     10.35133318	      3.93844276	      0.06873879	      7.76646857	     -3.36397223	     -7.49468314	      2.21717026	      2.43334871	     -5.17471247	      1.43732655	     -2.84869301	      0.87413836	     22.15233560	     90.77163953	     -1.42440132	     -2.76334318	      6.16990839	     23.35873003	     71.77253068
      0.96666670	     -1.48106993	     -1.98045781	      3.99273106	      0.01277060	      1.10293897	      0.39473050	      2.97337578	      2.84106447	     -7.90719323	      4.43010434	      0.07731991	      6.16990777	    -16.08963785	     -7.49490422	      3.67723191	      0.01479268	     10.31154733	      4.49243807	      0.07840784	      8.53387961	     -3.42077879	     -7.49490422	      2.27352756	      2.18755748	     -4.35657261	      1.18649164	     -2.84031936	      0.94304263	     21.53137126	     90.73346478	     -1.29544377	     -2.79740587	      6.16172431	     23.21470224	     71.73991647
      0.98333330	     -2.17762626	     -1.93707040	      3.89573953	      0.01294900	      1.10564827	      0.39445654	      3.86258132	      2.72541334	     -8.08886220	      4.84124762	      0.08449571	      6.49127817	    -15.90410939	     -7.49559923	      4.13389311	     -0.04729224	     10.31466935	      3.68220110	      0.06426653	      7.56937008	     -3.35346034	     -7.49559923	      2.47106895	      2.29719490	     -5.23394624	      1.18193048	     -2.80043411	      1.09126955	     22.19745686	     89.77072749	     -1.79581472	     -2.94713715	      6.65189464	     23.81209306	     71.03571246
      1.00000000	     -1.42917639	     -1.85307564	      3.95589966	      0.01325401	      1.10303659	      0.39502577	      2.61871610	      2.66400476	     -8.17968719	      4.27635796	      0.07463653	      6.69401531	    -14.92140023	     -7.49588364	      3.41541613	      0.11434989	     10.06539555	      4.32456289	      0.07547786	      8.45692382	     -3.25240127	     -7.49588364	      2.32778578	      1.95421224	     -4.34255744	      0.89278183	     -2.75419137	      1.25996639	     21.82266217	     90.18404609	     -1.62929618	     -2.99263244	      6.76032002	     23.85794934	     71.32318454
      1.01666670	     -2.26349849	     -1.84026543	      3.74668546	      0.01369578	      1.10271889	      0.39483480	      3.72555712	      2.54838017	     -8.00332690	      4.84131946	      0.08449696	      6.85377395	    -14.91925739	     -7.49625516	      4.05070925	      0.05212842	      9.84622620	      3.57355597	      0.06237032	      7.46217241	     -2.98635438	     -7.49625516	      2.69280961	      2.12808112	     -5.10018161	      0.71710950	     -2.71317423	      1.20821727	     22.57550233	     89.06479298	     -2.24737220	     -3.04323829	      6.90922939	     24.30595681	     70.67022265
      1.03333330	     -1.97527124	     -1.76952690	      3.90230159	      0.01367597	      1.10240356	      0.39504811	      2.91803725	      2.48932460	     -8.00341297	      4.20994003	      0.07347731	      6.71929047	    -14.51376967	     -7.49640888	      3.87297698	      0.26485228	      9.90626038	      4.19155982	      0.07315652	      8.22157004	     -3.11848622	     -7.49640888	      3.16690035	      1.76901427	     -4.44131985	      0.25399125	     -2.68977033	      1.27103893	     22.33048305	     88.77127608	     -2.46390919	     -3.18245142	      6.87619523	     24.43420064	     70.44572243
      1.05000000	     -2.67400895	     -1.78164706	      3.81445382	      0.01404527	      1.09988472	      0.39483385	      4.01152191	      2.41255423	     -8.01345464	      5.03983299	      0.08796168	      6.98654877	    -14.58720770	     -7.49674733	      4.41509545	      0.15825472	     10.04772494	      3.48635488	      0.06084837	      7.20898171	     -3.30687991	     -7.49674733	      3.19817912	      1.99518261	     -5.62697463	      0.63730287	     -2.58221221	      1.42956197	     22.70912501	     88.25869256	     -2.76047990	     -3.26143031	      7.30907829	     24.42824091	     70.08057927
      1.06666670	     -1.89267102	     -1.77372748	      3.94273491	      0.01384142	      1.10602010	      0.39496351	      2.75898037	      2.47384579	     -8.16957257	      4.43975650	      0.07748837	      6.80285659	    -13.78196470	     -7.49691766	      3.74533335	      0.22385034	      9.70985086	      4.22633262	      0.07376342	      8.01240809	     -2.87267632	     -7.49691766	      3.03486266	      1.74717324	     -4.50348635	      0.40321966	     -2.68645632	      1.63969640	     21.74351494	     89.23464997	     -2.31585374	     -3.26829760	      7.60073943	     24.11145224	     70.45431646
      1.08333330	     -3.00545578	     -1.85721961	      3.84510359	      0.01431214	      1.10237499	      0.39471464	      4.37312377	      2.45071903	     -8.34247525	      5.08961817	      0.08883059	      6.90328607	    -14.08695873	     -7.49724169	      4.77029937	      0.05059498	      9.85994241	      3.54704792	      0.06190766	      6.61107523	     -3.17634617	     -7.49724169	      3.51369516	      2.09002176	     -5.56104028	      0.47211768	     -2.66670809	      1.68711408	     22.29562637	     88.74041916	     -2.89525247	     -3.32049331	      8.01208677	     24.46160643	     70.14726653
      1.10000000	     -2.25152514	     -1.85025509	      4.08243075	      0.01414591	      1.10233650	      0.39488441	      2.99896281	      2.55089218	     -8.51646648	      4.15580318	      0.07253245	      6.69861549	    -13.47689338	     -7.49739993	      4.11161805	      0.14183544	      9.71409347	      4.18304884	      0.07300797	      7.61872575	     -2.68010653	     -7.49739993	      3.27500881	      1.89183104	     -4.43763430	      0.16770966	     -2.75064530	      1.71430217	     21.65945622	     89.02916005	     -2.61645025	     -3.37899979	      8.10727959	     24.41416394	     70.21073973
      1.11666670	     -3.47421513	     -1.89585658	      3.96633856	      0.01454767	      1.10428154	      0.39445162	      4.73578573	      2.48711964	     -8.77307027	      4.85872542	      0.08480076	      6.86793079	    -13.66543979	     -7.49866337	      5.25861643	      0.02582172	      9.82164953	      3.36060371	      0.05865360	      6.34852076	     -2.94272131	     -7.49866337	      3.74622287	      2.20885262	     -5.56821892	      0.22136603	     -2.62797189	     -0.09567837	     22.41007547	     94.99413259	     -3.13005042	     -3.45914510	      8.34153772	     24.91997896	     72.42564985
      1.13333330	     -2.59994061	     -1.76704982	      4.17861612	      0.01434902	      1.10158199	      0.39486394	      3.25357098	      2.45871860	     -9.00365525	      3.95840289	      0.06908716	      6.69718471	    -12.99071323	     -7.49886547	      4.42164679	      0.21952982	      9.57431693	      3.96902064	      0.06927248	      7.44725985	     -2.41707911	     -7.49886547	      3.31212450	      1.85065224	     -4.32852314	     -0.16570915	     -2.66374790	      0.09631672	     22.08309730	     92.43434721	     -2.80178451	     -3.59239207	      8.47135302	     24.98526850	     71.75530518
      1.15000000	     -3.78548051	     -1.83693671	      3.85601403	      0.01536956	      1.10098587	      0.39468901	      5.04198087	      2.42375531	     -9.26505697	      4.65054283	      0.08116728	      6.99219216	    -13.25439408	     -7.49901634	      5.43816463	      0.09000358	      9.73541330	      3.05012000	      0.05323464	      6.31969949	     -2.84914612	     -7.49901634	      3.76914697	      2.19814592	     -5.68994003	     -0.01370581	     -2.66119955	      0.31584193	     22.84241762	     91.49296476	     -3.57311538	     -3.64226003	      8.75837842	     25.50113170	     71.05153604
      1.16666670	     -2.88841227	     -1.68427939	      4.07913577	      0.01476153	      1.10141610	      0.39503850	      3.54601247	      2.36413801	     -9.48239549	      3.61203957	      0.06304198	      6.80641129	    -12.63486338	     -7.49907316	      4.62707935	      0.37418420	      9.58442925	      3.70449109	      0.06465557	      7.43269945	     -2.67489499	     -7.49907316	      3.48338975	      1.80954187	     -4.45277248	     -0.31012368	     -2.61362111	      0.50667970	     22.27405310	     91.34659790	     -3.20829391	     -3.68152569	      8.78213048	     25.74593057	     70.94073105
